<svg width="683" height="603" viewBox="0 0 683 603" fill="none" xmlns="http://www.w3.org/2000/svg">
<path d="M148.397 1.68369C92.3971 10.4837 45.0638 45.417 19.7305 96.4837C6.79715 122.617 1.73048 141.817 0.263815 171.284C-3.06952 235.15 25.3305 317.284 77.1971 393.817C125.73 465.284 197.864 531.284 292.13 590.35C299.33 594.75 306.93 599.417 309.064 600.484C314.13 603.15 327.864 602.217 335.73 598.75C346.93 593.817 369.864 580.084 413.064 552.35C443.064 533.017 503.197 482.084 541.73 443.284C574.13 410.75 589.864 392.884 611.33 364.217C682.53 269.017 701.064 173.284 662.264 101.15C640.264 60.3504 600.13 31.417 549.064 19.5504C540.93 17.6837 530.797 16.7504 513.064 16.217C483.464 15.417 464.93 17.9504 439.597 26.3504C403.597 38.4837 365.197 63.017 343.73 87.6837C339.864 92.0837 336.264 95.417 335.73 95.1504C335.197 94.7504 333.464 91.817 331.864 88.4837C327.997 80.217 309.73 57.9504 297.464 46.4837C272.664 23.2837 239.73 7.55036 204.397 1.81703C190.13 -0.582974 163.197 -0.582974 148.397 1.68369ZM124.13 62.617C117.064 74.7504 107.73 95.417 93.4638 129.817C79.8638 163.15 64.3971 195.417 59.0638 201.817C55.9971 205.684 55.8638 205.684 55.7305 202.75C55.7305 198.35 60.5305 184.884 66.2638 173.284C69.0638 167.684 76.6638 150.884 83.0638 135.817C96.5305 104.217 105.73 85.417 113.73 73.1504C118.797 65.1504 127.33 54.4837 128.53 54.4837C128.797 54.4837 126.797 58.217 124.13 62.617ZM149.864 75.2837C143.064 100.084 133.73 122.75 112.13 165.55C103.73 182.35 96.6638 195.817 96.3971 195.55C94.2638 193.417 123.597 116.35 135.997 91.1504C142.13 78.7504 151.864 62.217 152.664 63.017C152.797 63.1504 151.597 68.617 149.864 75.2837ZM563.33 95.1504C561.864 132.75 546.13 195.417 514.13 290.084C506.664 312.217 500.264 330.217 499.997 329.95C499.864 329.684 503.197 311.817 507.73 290.35C516.93 245.017 528.397 199.017 543.464 145.15C555.33 103.417 557.997 91.5504 559.33 76.0837L560.264 65.817L562.13 71.817C563.464 76.217 563.73 82.617 563.33 95.1504ZM225.064 101.817C219.33 119.417 214.53 133.284 214.53 132.484C214.13 129.15 234.13 68.3504 235.197 69.417C235.464 69.6837 230.93 84.3504 225.064 101.817ZM597.597 105.284C600.13 128.884 589.864 181.817 570.397 245.817C566.53 258.217 561.064 276.217 558.13 285.817C555.33 295.284 549.33 317.684 544.93 335.417C536.53 369.95 529.064 392.884 519.73 412.884C513.73 425.95 510.797 429.284 516.264 417.017C522.93 401.95 545.597 323.684 557.197 275.817C571.064 218.884 586.797 141.817 589.064 120.35C589.864 113.017 590.13 102.084 589.597 95.817L588.797 84.4837L592.797 90.617C595.597 95.017 596.93 99.017 597.597 105.284ZM513.73 108.884C504.13 158.884 482.797 248.084 473.464 276.484C461.064 314.617 426.664 399.55 426.53 392.484C426.397 387.15 444.797 319.417 451.064 302.484C484.53 211.417 495.197 175.55 505.597 118.617C509.464 97.5504 510.93 92.0837 513.33 89.417C517.864 84.7504 517.864 87.5504 513.73 108.884ZM75.5971 92.0837C74.6638 93.817 68.6638 107.15 62.1305 121.817C55.7305 136.484 50.3971 147.817 50.3971 146.884C50.3971 141.15 64.9305 106.484 71.8638 95.5504C76.1305 89.017 78.3971 86.8837 75.5971 92.0837ZM480.797 107.15C478.664 115.284 473.997 134.084 470.397 149.15C456.797 206.884 451.33 226.617 435.73 274.084C417.064 331.017 406.397 365.55 397.064 400.75C385.197 444.75 382.397 452.484 365.33 488.084C350.53 518.75 348.93 518.217 359.864 486.484C365.064 471.417 373.464 446.884 378.53 431.817C389.864 398.617 426.13 282.884 431.064 264.484C433.064 257.15 437.197 242.084 440.397 231.15C443.597 220.084 449.864 197.684 454.264 181.15C458.664 164.617 465.064 142.75 468.397 132.484C474.264 114.884 483.597 91.2837 484.53 92.0837C484.664 92.3504 483.064 99.1504 480.797 107.15ZM268.397 109.417C264.13 140.35 242.264 201.284 224.13 232.75C219.997 239.817 213.197 251.95 208.93 259.684C204.53 267.417 201.064 273.15 201.064 272.35C201.064 268.35 230.13 186.617 240.397 161.684C248.264 142.617 267.464 102.484 268.664 102.484C269.064 102.484 268.93 105.684 268.397 109.417ZM367.73 192.084C344.13 262.35 338.397 278.484 340.397 269.15C340.797 267.284 342.53 257.15 344.264 246.484C346.664 231.15 348.797 223.417 354.397 209.15C358.13 199.284 365.864 179.15 371.33 164.484C381.464 137.55 391.597 113.95 392.664 115.017C393.064 115.417 381.864 150.084 367.73 192.084ZM443.064 126.084C442.53 127.417 435.997 151.284 428.397 179.15C414.664 229.15 409.064 247.15 395.864 282.617C379.197 327.417 380.664 318.617 399.064 263.15C421.864 195.017 427.597 176.484 433.197 154.617C438.13 135.284 441.997 123.817 443.464 123.817C443.73 123.817 443.597 124.884 443.064 126.084ZM323.597 151.817C319.197 165.417 311.064 193.017 305.597 213.15C298.264 239.684 294.664 250.75 292.397 253.15C290.797 255.017 288.664 257.684 287.864 259.15C285.73 262.484 284.797 265.55 301.464 215.15C309.197 191.684 318.264 162.617 321.73 150.484C329.597 122.75 328.93 124.484 330.397 125.95C331.197 126.75 328.53 136.75 323.597 151.817ZM655.197 149.95C657.864 163.684 658.13 192.75 655.864 207.15C654.264 216.617 648.93 240.35 648.53 239.55C648.53 239.284 648.664 214.484 648.93 184.484C649.33 137.817 649.597 130.484 651.197 133.95C652.13 136.217 653.997 143.417 655.197 149.95ZM213.597 139.017C213.197 141.017 212.53 142.35 212.13 142.084C211.864 141.684 211.997 139.817 212.53 137.95C212.93 135.95 213.597 134.617 213.997 134.884C214.264 135.284 214.13 137.15 213.597 139.017ZM127.73 199.95C111.997 249.684 104.53 269.417 93.9971 289.417C88.5305 299.684 86.7971 302.084 85.4638 300.884C81.8638 297.95 88.1305 275.284 100.93 244.617C108.93 225.417 141.464 153.15 141.997 153.55C142.13 153.817 135.73 174.617 127.73 199.95ZM179.73 168.617C177.464 176.484 171.997 194.35 167.597 208.35C163.197 222.35 154.53 250.75 148.264 271.55C136.13 312.084 127.864 335.684 120.13 352.217C114.93 363.417 113.864 363.417 112.397 353.017C111.597 347.684 112.13 345.55 115.73 338.35C123.197 323.684 128.664 307.95 139.73 269.15C146.13 246.484 153.597 223.95 158.264 212.617C176.664 168.217 183.064 153.284 183.464 153.684C183.73 153.95 181.997 160.617 179.73 168.617ZM285.73 185.417C282.264 195.95 270.264 230.617 259.064 262.484C237.064 325.15 229.064 349.55 226.397 361.55C225.464 365.684 224.397 368.884 224.13 368.617C223.864 368.35 224.53 363.684 225.597 358.35C226.664 352.884 229.464 335.817 231.597 320.35C236.13 289.284 239.064 276.35 244.264 264.617C246.13 260.35 247.73 255.417 247.73 253.817C247.73 251.284 261.464 217.684 267.33 205.817C271.197 198.084 290.93 165.284 291.464 165.817C291.73 166.084 289.197 174.884 285.73 185.417ZM351.197 339.284C341.33 376.35 331.064 418.884 326.397 441.817C324.264 452.084 320.397 466.084 317.864 473.017C311.997 487.95 309.864 501.284 310.93 513.284C311.73 520.217 311.197 524.617 309.064 533.284C307.464 539.417 305.997 544.75 305.73 545.017C304.13 546.484 302.13 531.55 302.264 519.017C302.397 487.417 311.464 445.417 331.597 383.95C340.664 355.95 357.33 310.35 358.13 311.15C358.397 311.417 355.197 324.084 351.197 339.284ZM221.997 381.417C220.93 386.75 218.93 398.884 217.73 408.484C215.997 422.484 214.797 427.417 211.464 434.084C209.064 438.75 207.064 442.35 206.93 442.084C206.397 441.55 222.93 370.484 223.464 371.017C223.73 371.417 223.064 375.95 221.997 381.417ZM277.73 406.884C274.264 416.084 270.13 425.684 270.797 422.484C272.264 416.484 279.197 398.484 279.997 398.484C280.53 398.484 279.464 402.217 277.73 406.884ZM416.264 475.95C410.93 491.017 407.064 497.55 399.064 506.084L391.73 513.817L401.464 497.017C406.797 487.817 412.93 476.884 415.064 472.75C417.197 468.617 419.197 465.55 419.464 465.684C419.597 465.95 418.264 470.484 416.264 475.95ZM269.197 488.617C259.73 511.684 255.464 521.15 254.264 521.15C253.73 521.15 251.997 519.95 250.264 518.484C247.33 516.084 247.197 515.684 249.33 514.484C251.597 513.017 267.73 486.884 272.53 476.884C277.33 466.484 275.464 473.284 269.197 488.617Z" fill="black"/>
</svg>
